<?xml version="1.0" encoding="UTF-8" standalone="no"?>
<!-- Created with Inkscape (http://www.inkscape.org/) -->

<svg
   width="64.015381mm"
   height="64.015381mm"
   viewBox="0 0 64.015381 64.015381"
   version="1.1"
   id="svg1"
   sodipodi:docname="fxst-logo.svg"
   inkscape:export-filename="rain-logo-wireframe.png"
   inkscape:export-xdpi="406.30237"
   inkscape:export-ydpi="406.30237"
   inkscape:version="1.4.2 (ebf0e940d0, 2025-05-08)"
   xml:space="preserve"
   xmlns:inkscape="http://www.inkscape.org/namespaces/inkscape"
   xmlns:sodipodi="http://sodipodi.sourceforge.net/DTD/sodipodi-0.dtd"
   xmlns="http://www.w3.org/2000/svg"
   xmlns:svg="http://www.w3.org/2000/svg"><sodipodi:namedview
     id="namedview1"
     pagecolor="#505050"
     bordercolor="#ffffff"
     borderopacity="1"
     inkscape:showpageshadow="0"
     inkscape:pageopacity="0"
     inkscape:pagecheckerboard="1"
     inkscape:deskcolor="#505050"
     inkscape:document-units="mm"
     inkscape:zoom="2.079271"
     inkscape:cx="55.067376"
     inkscape:cy="146.68602"
     inkscape:window-width="1920"
     inkscape:window-height="999"
     inkscape:window-x="0"
     inkscape:window-y="0"
     inkscape:window-maximized="1"
     inkscape:current-layer="g4"><inkscape:page
       x="0"
       y="0"
       width="64.015381"
       height="64.015381"
       id="page2"
       margin="0"
       bleed="0" /></sodipodi:namedview><defs
     id="defs1" /><g
     id="g4"
     transform="translate(-130.18352,-132.16122)"
     style="stroke:#000000;stroke-opacity:1;fill:#ffffff;fill-opacity:1;stroke-width:0.25;stroke-dasharray:none"><circle
       style="fill:#e6e6e6;fill-opacity:1;fill-rule:nonzero;stroke:#39393a;stroke-width:1;stroke-dasharray:none;stroke-opacity:1"
       id="path133-6"
       cx="162.19121"
       cy="164.16891"
       r="31.499863" /><path
       id="path7"
       style="fill:#39393a;fill-opacity:1;stroke:none;stroke-width:0.25;stroke-linecap:square;stroke-linejoin:round;stroke-miterlimit:0;stroke-dasharray:none;stroke-dashoffset:22.6772;stroke-opacity:1"
       d="m 162.19123,135.92663 c -4.90655,-7e-5 -8.88403,4.02484 -8.8837,8.98963 4e-5,0.24993 0.0104,0.49974 0.031,0.7488 -3.34492,2.88012 -11.04527,8.43866 -11.06496,-1.41336 -7e-5,-0.035 -1.5e-4,-0.0698 0,-0.10438 -0.0173,0.017 -0.0345,0.034 -0.0517,0.0512 -3.46905,3.46917 -3.43573,9.12704 0.0744,12.63747 0.17659,0.17648 0.36038,0.34561 0.55087,0.50695 -0.32833,4.4009 -1.84229,13.78055 -8.82375,6.82697 -0.0248,-0.0247 -0.049,-0.0493 -0.0734,-0.0739 -2.7e-4,0.0241 -4.5e-4,0.0482 -5.2e-4,0.0724 -6e-5,4.90615 4.02422,8.88346 8.9886,8.88369 0.24992,-4e-5 0.49974,-0.0104 0.74879,-0.031 2.87981,3.34422 8.44098,11.0463 -1.41232,11.06599 -0.035,7e-5 -0.0698,1.4e-4 -0.10438,0 0.017,0.0173 0.034,0.0345 0.0512,0.0517 3.46917,3.46905 9.12704,3.43573 12.63747,-0.0744 0.17665,-0.17658 0.34595,-0.36037 0.50746,-0.55087 4.40119,0.32843 13.77917,1.84265 6.82594,8.82375 -0.0247,0.0248 -0.0493,0.049 -0.0739,0.0734 0.0241,2.7e-4 0.0482,4.5e-4 0.0724,5.2e-4 4.90615,7e-5 8.88347,-4.02422 8.8837,-8.9886 -1e-5,-0.22157 -0.008,-0.44307 -0.0243,-0.66404 3.28983,-2.85334 11.14273,-8.62077 11.16263,1.3286 3.4694,-3.46923 3.43608,-9.1275 -0.0744,-12.63799 -0.17067,-0.17063 -0.34807,-0.33441 -0.53175,-0.49092 0.32287,-4.38578 1.82619,-13.83381 8.82634,-6.8616 7e-5,-4.90635 -4.02453,-8.88375 -8.98912,-8.8837 v -5.1e-4 c -0.23869,9e-5 -0.47728,0.01 -0.7152,0.0284 -2.88561,-3.35695 -8.39672,-11.02257 1.43299,-11.04222 -3.46937,-3.46925 -9.12764,-3.43571 -12.63799,0.0749 -0.15511,0.15509 -0.30456,0.31574 -0.44804,0.48162 -4.37583,-0.31938 -13.8685,-1.81624 -6.88433,-8.8284 z m 6.66419,9.09247 c -2.86069,3.57276 -2.6048,8.69313 0.59428,11.89178 0.017,0.0169 0.034,0.0338 0.0512,0.0506 -1.4e-4,-0.0346 -7e-5,-0.0694 0,-0.10438 0.0193,-9.66404 7.42875,-4.49975 10.86859,-1.58079 -4.51608,0.53749 -7.91413,4.32426 -7.91425,8.81962 7e-5,0.0243 2.5e-4,0.0486 5.2e-4,0.0729 0.0244,-0.0246 0.0486,-0.0492 0.0734,-0.0739 6.88626,-6.85876 8.45327,2.17261 8.8098,6.64352 -3.57353,-2.81744 -8.65761,-2.54402 -11.83804,0.63665 -0.0171,0.0172 -0.0342,0.0344 -0.0512,0.0517 0.0346,-1.4e-4 0.0694,-5.9e-4 0.10439,-5.2e-4 9.79248,0.0196 4.3603,7.62739 1.46606,11.00398 -0.49962,-4.55264 -4.30255,-7.99699 -8.82944,-7.99692 6.83714,6.86452 -2.11641,8.44312 -6.60166,8.80618 2.79768,-3.57369 2.51638,-8.64112 -0.65578,-11.81324 -0.0194,9.68884 -7.4668,4.47335 -10.89494,1.55856 4.50485,-0.54897 7.88878,-4.33079 7.88893,-8.81651 -6.86491,6.83751 -8.44376,-2.11717 -8.8067,-6.60218 3.57378,2.79799 8.64157,2.51667 11.81375,-0.65578 -9.68747,-0.0194 -4.47513,-7.46511 -1.56011,-10.8939 0.54924,4.50484 4.33128,7.88855 8.81703,7.8884 0.0241,-7e-5 0.0482,-2.4e-4 0.0724,-5.1e-4 -0.0246,-0.0244 -0.0492,-0.0491 -0.0739,-0.0739 -6.87005,-6.8976 2.20257,-8.45822 6.66574,-8.81135 z"
       sodipodi:nodetypes="cccsccccsccccsccccscccccccccccccccccccccccccccccccccccccccc" /><path
       id="rect133-2"
       style="fill:#39393a;fill-opacity:1;fill-rule:nonzero;stroke:none;stroke-width:0.25;stroke-dasharray:none;stroke-opacity:1"
       d="m 162.19095,157.07968 c 1e-5,1.23732 -0.35426,2.04658 -0.95085,2.68666 -1.14506,-0.29488 -2.46576,-0.57878 -4.06952,-0.57929 0.85341,0.85339 1.18062,1.65732 1.22474,2.50785 -1.02032,0.60212 -2.15723,1.33626 -3.29334,2.47375 1.22002,0 2.02334,0.34442 2.65875,0.92553 -0.29943,1.1566 -0.59114,2.49192 -0.59015,4.11861 0.87068,-0.87068 1.68942,-1.19338 2.5585,-1.2268 0.5996,1.01435 1.33166,2.14332 2.46187,3.27215 1e-5,-1.20187 0.33389,-1.99999 0.89917,-2.63136 1.15314,0.29804 2.48468,0.587 4.10621,0.58601 -0.87147,-0.87148 -1.19443,-1.69094 -1.22783,-2.56108 1.02432,-0.60383 2.16801,-1.33985 3.31194,-2.48306 -1.21957,0 -2.02382,-0.34378 -2.65979,-0.92449 0.29361,-1.14193 0.57518,-2.45876 0.57568,-4.05711 -0.85429,0.85428 -1.65857,1.18172 -2.50993,1.22576 -0.60627,-1.03001 -1.34463,-2.18156 -2.49545,-3.33313 z" /></g></svg>
